<?xml version="1.0" encoding="iso-8859-1"?>
<!-- Generator: Adobe Illustrator 16.0.0, SVG Export Plug-In . SVG Version: 6.00 Build 0)  -->
<!DOCTYPE svg PUBLIC "-//W3C//DTD SVG 1.1//EN" "http://www.w3.org/Graphics/SVG/1.1/DTD/svg11.dtd">
<svg version="1.1" id="Capa_1" xmlns="http://www.w3.org/2000/svg" xmlns:xlink="http://www.w3.org/1999/xlink" x="0px" y="0px"
	 width="792.025px" height="792.025px" viewBox="0 0 792.025 792.025" style="enable-background:new 0 0 792.025 792.025;"
	 xml:space="preserve">
<g>
	<g>
		<g>
			<path d="M692.809,730.145c0,6.809-5.519,12.325-12.324,12.325c-6.807,0-12.324-5.518-12.324-12.325l0.154-705.392H123.813
				l-0.129,731.873l55.126-36.742c4.254-2.811,9.617-2.655,13.614,0l67.476,44.967l67.347-44.915
				c4.254-2.837,9.669-2.707,13.691-0.052l67.45,44.967l67.349-44.915c4.254-2.837,9.643-2.708,13.664-0.052l67.477,44.967
				l67.348-44.915c5.646-3.789,13.33-2.27,17.121,3.377c3.765,5.647,2.269,13.331-3.379,17.121l-74.229,49.506
				c-3.996,2.682-9.412,2.86-13.666,0.052l-67.478-44.968l-67.348,44.916c-3.996,2.682-9.41,2.86-13.689,0.052l-67.451-44.968
				l-67.347,44.916c-3.997,2.682-9.411,2.86-13.691,0.052l-67.476-44.967l-67.45,44.967l-0.026-0.026
				c-1.935,1.287-4.281,2.035-6.808,2.035c-6.755,0-12.273-5.518-12.273-12.324L99.189,13.64l-0.077-1.264
				C99.112,5.543,104.681,0,111.514,0h569.152v0.052c6.781,0,12.324,5.518,12.324,12.324L692.809,730.145z"/>
			<path d="M210.008,420.868c-6.833,0-12.376-5.543-12.376-12.376c0-6.808,5.544-12.376,12.376-12.376h372.111
				c6.834,0,12.377,5.543,12.377,12.376s-5.543,12.376-12.377,12.376H210.008z"/>
			<path d="M210.008,495.151c-6.833,0-12.376-5.543-12.376-12.376s5.544-12.376,12.376-12.376h372.111
				c6.834,0,12.377,5.543,12.377,12.376s-5.543,12.376-12.377,12.376H210.008z"/>
			<path d="M210.008,569.409c-6.833,0-12.376-5.544-12.376-12.377c0-6.832,5.544-12.376,12.376-12.376H484.27
				c6.834,0,12.377,5.544,12.377,12.376c0,6.833-5.543,12.377-12.377,12.377H210.008z"/>
			<path d="M210.704,123.71c-6.833,0-12.376-5.543-12.376-12.376s5.543-12.376,12.376-12.376h372.112
				c6.832,0,12.375,5.543,12.375,12.376s-5.543,12.376-12.375,12.376H210.704z"/>
			<path d="M210.704,197.968c-6.833,0-12.376-5.543-12.376-12.376s5.543-12.376,12.376-12.376h372.112
				c6.832,0,12.375,5.543,12.375,12.376c0,6.807-5.543,12.376-12.375,12.376H210.704z"/>
			<path d="M210.704,272.251c-6.833,0-12.376-5.544-12.376-12.376s5.543-12.376,12.376-12.376h372.112
				c6.832,0,12.375,5.543,12.375,12.376s-5.543,12.376-12.375,12.376H210.704z"/>
			<path d="M210.008,346.585c-6.833,0-12.376-5.543-12.376-12.376s5.544-12.376,12.376-12.376h372.111
				c6.834,0,12.377,5.543,12.377,12.376s-5.543,12.376-12.377,12.376H210.008z"/>
		</g>
	</g>
</g>
<g>
</g>
<g>
</g>
<g>
</g>
<g>
</g>
<g>
</g>
<g>
</g>
<g>
</g>
<g>
</g>
<g>
</g>
<g>
</g>
<g>
</g>
<g>
</g>
<g>
</g>
<g>
</g>
<g>
</g>
</svg>
