<?xml version="1.0" encoding="iso-8859-1"?>
<!-- Generator: Adobe Illustrator 16.0.0, SVG Export Plug-In . SVG Version: 6.00 Build 0)  -->
<!DOCTYPE svg PUBLIC "-//W3C//DTD SVG 1.1//EN" "http://www.w3.org/Graphics/SVG/1.1/DTD/svg11.dtd">
<svg version="1.1" id="Capa_1" xmlns="http://www.w3.org/2000/svg" xmlns:xlink="http://www.w3.org/1999/xlink" x="0px" y="0px"
	 width="91.084px" height="91.084px" viewBox="0 0 91.084 91.084" style="enable-background:new 0 0 91.084 91.084;"
	 xml:space="preserve">
<g>
	<g>
		<path d="M52.497,50.637H38.343c-1.044,0-1.891,0.846-1.891,1.893c0,1.044,0.847,1.891,1.891,1.891h14.153
			c1.045,0,1.892-0.847,1.892-1.891C54.388,51.482,53.542,50.637,52.497,50.637z"/>
		<path d="M52.497,61.064H38.343c-1.044,0-1.891,0.847-1.891,1.893c0,1.044,0.847,1.891,1.891,1.891h14.153
			c1.045,0,1.892-0.847,1.892-1.891C54.388,61.911,53.542,61.064,52.497,61.064z"/>
		<path d="M52.497,71.77H38.343c-1.044,0-1.891,0.848-1.891,1.893s0.847,1.892,1.891,1.892h14.153c1.045,0,1.892-0.847,1.892-1.892
			S53.542,71.77,52.497,71.77z"/>
		<path d="M52.619,22.137v-9.203c0-1.011-0.819-1.83-1.83-1.83H40.295c-1.011,0-1.83,0.819-1.83,1.83v9.203
			c-6.753,2.55-11.042,9.063-11.042,16.969v50.148c0,1.012,0.819,1.83,1.83,1.83h32.578c1.011,0,1.83-0.818,1.83-1.83V39.105
			C63.661,31.199,59.372,24.687,52.619,22.137z M31.084,87.424V75.833c0.081,0.01,0.16,0.024,0.244,0.024
			c1.146,0,2.074-0.93,2.074-2.074v-0.244c0-1.146-0.929-2.074-2.074-2.074c-0.083,0-0.163,0.016-0.244,0.024v-6.361
			c0.081,0.009,0.16,0.024,0.244,0.024c1.146,0,2.074-0.93,2.074-2.074v-0.244c0-1.146-0.929-2.074-2.074-2.074
			c-0.083,0-0.163,0.016-0.244,0.024v-5.779c0.081,0.009,0.16,0.024,0.244,0.024c1.146,0,2.074-0.93,2.074-2.074V52.71
			c0-1.146-0.929-2.073-2.074-2.073c-0.083,0-0.163,0.016-0.244,0.023V39.105c0-6.738,3.814-12.191,9.718-13.891
			c0.784-0.226,1.324-0.943,1.324-1.759v-8.692h6.833v8.692c0,0.815,0.54,1.533,1.324,1.759c5.903,1.699,9.718,7.152,9.718,13.891
			V50.66c-0.081-0.01-0.16-0.023-0.244-0.023c-1.145,0-2.074,0.928-2.074,2.073v0.245c0,1.145,0.93,2.074,2.074,2.074
			c0.084,0,0.163-0.016,0.244-0.024v5.779c-0.081-0.011-0.16-0.024-0.244-0.024c-1.145,0-2.074,0.93-2.074,2.074v0.244
			c0,1.146,0.93,2.074,2.074,2.074c0.084,0,0.163-0.017,0.244-0.024v6.361c-0.081-0.009-0.16-0.024-0.244-0.024
			c-1.145,0-2.074,0.93-2.074,2.074v0.244c0,1.146,0.93,2.074,2.074,2.074c0.084,0,0.163-0.016,0.244-0.024v11.591H31.084z"/>
		<path d="M39.563,10.493h11.713c0.605,0,1.098-0.492,1.098-1.099V1.098C52.374,0.493,51.882,0,51.276,0H39.563
			c-0.607,0-1.098,0.492-1.098,1.098v8.297C38.465,10.001,38.957,10.493,39.563,10.493z"/>
	</g>
</g>
<g>
</g>
<g>
</g>
<g>
</g>
<g>
</g>
<g>
</g>
<g>
</g>
<g>
</g>
<g>
</g>
<g>
</g>
<g>
</g>
<g>
</g>
<g>
</g>
<g>
</g>
<g>
</g>
<g>
</g>
</svg>
