<?xml version="1.0" encoding="iso-8859-1"?>
<!-- Generator: Adobe Illustrator 19.0.0, SVG Export Plug-In . SVG Version: 6.00 Build 0)  -->
<svg xmlns="http://www.w3.org/2000/svg" xmlns:xlink="http://www.w3.org/1999/xlink" version="1.1" id="Capa_1" x="0px" y="0px" viewBox="0 0 194.214 194.214" style="enable-background:new 0 0 194.214 194.214;" xml:space="preserve" width="512px" height="512px">
<path d="M53.097,194.214h44.011h44.009c9.682,0,17.763-7.393,18.62-17.038L174.154,15H20.06l14.417,162.176  C35.334,186.82,43.414,194.214,53.097,194.214z M127.581,147.211c-1.454,2.119-3.804,3.259-6.193,3.259  c-1.462,0-2.938-0.426-4.234-1.315l-9.027-6.189c-3.416-2.342-4.287-7.01-1.944-10.427c0.993-1.448,2.406-2.433,3.962-2.916  c0.494-0.21,1.016-0.375,1.566-0.477c19.127-3.567,31.786-22.03,28.219-41.157c-0.759-4.072,1.926-7.988,5.998-8.748  c4.075-0.758,7.988,1.926,8.748,5.998c4.186,22.45-7.32,44.246-26.736,54.081C129.281,141.728,129.246,144.783,127.581,147.211z   M100.544,54.154c-9.426,0-18.286,3.67-24.95,10.335c-2.93,2.929-7.679,2.93-10.606,0c-2.93-2.929-2.93-7.677-0.001-10.606  c9.498-9.498,22.125-14.729,35.558-14.729c8.796,0,17.241,2.256,24.694,6.472c1.278-2.312,3.738-3.878,6.567-3.878  c4.143,0,7.5,3.358,7.5,7.5v10.946c0,4.141-3.358,7.499-7.5,7.499c-2.331,0-4.414-1.064-5.789-2.732  c-0.179-0.149-0.355-0.304-0.523-0.472C118.83,57.824,109.969,54.154,100.544,54.154z M42.824,81.878l9.789-4.896  c3.708-1.854,8.211-0.352,10.063,3.353c0.922,1.844,1.012,3.885,0.415,5.7c-0.062,0.331-0.139,0.661-0.249,0.99  c-2.979,8.942-2.298,18.509,1.918,26.939s11.463,14.713,20.405,17.692c3.93,1.309,6.054,5.556,4.744,9.486  c-1.047,3.144-3.973,5.132-7.114,5.132c-0.786,0-1.585-0.125-2.372-0.387c-12.743-4.246-23.07-13.2-29.079-25.213  c-3.875-7.748-5.642-16.171-5.277-24.594c-2.708-0.043-5.3-1.549-6.596-4.138C37.618,88.237,39.119,83.732,42.824,81.878z" fill="#92db3d"/>
<path d="M182.005,0H12.209c-4.143,0-7.5,3.358-7.5,7.5c0,4.142,3.357,7.5,7.5,7.5h0.321h7.53h154.095h7.53h0.321  c4.142,0,7.5-3.358,7.5-7.5C189.505,3.358,186.148,0,182.005,0z" fill="#92db3d"/>
<g>
</g>
<g>
</g>
<g>
</g>
<g>
</g>
<g>
</g>
<g>
</g>
<g>
</g>
<g>
</g>
<g>
</g>
<g>
</g>
<g>
</g>
<g>
</g>
<g>
</g>
<g>
</g>
<g>
</g>
</svg>
