<?xml version="1.0" encoding="iso-8859-1"?>
<!-- Generator: Adobe Illustrator 18.1.1, SVG Export Plug-In . SVG Version: 6.00 Build 0)  -->
<svg xmlns="http://www.w3.org/2000/svg" xmlns:xlink="http://www.w3.org/1999/xlink" version="1.1" id="Capa_1" x="0px" y="0px" viewBox="0 0 27.428 27.428" style="enable-background:new 0 0 27.428 27.428;" xml:space="preserve" width="512px" height="512px">
<g>
	<path d="M27.245,12.945c-1.511,0.013-3.021,0.021-4.531,0.034c0.254,2.6-0.603,5.287-2.594,7.275   c-3.535,3.534-9.263,3.534-12.796,0c-3.534-3.531-3.534-9.26,0-12.794c3.015-3.016,7.625-3.445,11.109-1.313   c-1.181,1.167-2.57,2.549-2.57,2.549c-1,1.062,0.017,1.766,0.69,1.77h8.828c0.338,0,0.61-0.273,0.611-0.611V1.099   c0.041-0.825-0.865-1.592-1.756-0.7c0,0-1.495,1.479-2.533,2.509C16.397-0.97,8.919-0.53,4.126,4.262c-5.3,5.3-5.3,13.893,0,19.192   c5.299,5.298,13.892,5.298,19.191,0C26.201,20.572,27.501,16.714,27.245,12.945z" fill="#e66644"/>
</g>
<g>
</g>
<g>
</g>
<g>
</g>
<g>
</g>
<g>
</g>
<g>
</g>
<g>
</g>
<g>
</g>
<g>
</g>
<g>
</g>
<g>
</g>
<g>
</g>
<g>
</g>
<g>
</g>
<g>
</g>
</svg>
